<?xml version="1.0"?>
<svg xmlns="http://www.w3.org/2000/svg" version="1.1" width="1565.66931152344pt" height="1629.41931152344pt" viewBox="-43.1692913385827 -43.1692913385827 1565.66929133858 1629.41929133858" preserveAspectRatio="none" xmlns:xlink="http://www.w3.org/1999/xlink">
  <defs>
  </defs>
  <path d="M64.4999923706055,205.124984741211 C64.4999923706055,216.722961425781 55.0979766845703,226.124984741211 43.5000038146973,226.125 C31.902027130127,226.125 22.5000057220459,216.72297668457 22.4999980926514,205.125 L22.5,205.125015258789 C22.4999885559082,193.52702331543 31.9020004272461,184.125 43.4999656677246,184.125 C55.0979461669922,184.124969482422 64.4999771118164,193.526977539063 64.4999923706055,205.124984741211 C64.4999923706055,205.124984741211 64.4999923706055,205.125 64.4999923706055,205.125 " stroke="none" fill="#FFFFFF" fill-rule="evenodd" stroke-width="0" fill-opacity="1" />
  <text x="3.66602230072021" y="33.736442565918" dx="0" dy="0" font-family="Arial" font-size="9.74999970942737pt" fill="#7C7C7C" style="text-anchor:start" transform="matrix(0.750000 0.000000 0.000000 0.750000 22.5 184.125)">START</text>
  <path d="M64.4999923706055,205.124984741211 C64.4999923706055,216.722961425781 55.0979766845703,226.124984741211 43.5000038146973,226.125 C31.902027130127,226.125 22.5000057220459,216.72297668457 22.4999980926514,205.125 L22.5,205.125015258789 C22.4999885559082,193.52702331543 31.9020004272461,184.125 43.4999656677246,184.125 C55.0979461669922,184.124969482422 64.4999771118164,193.526977539063 64.4999923706055,205.124984741211 C64.4999923706055,205.124984741211 64.4999923706055,205.125 64.4999923706055,205.125 " stroke="#707070" fill="none" stroke-width="3" stroke-opacity="1" />
  <path d="M316.499969482422,205.124984741211 C316.499969482422,216.722961425781 307.097961425781,226.124984741211 295.5,226.125 C283.902008056641,226.125 274.5,216.72297668457 274.499969482422,205.125 L274.5,205.125015258789 C274.499969482422,193.52702331543 283.901977539063,184.125 295.499938964844,184.125 C307.097930908203,184.124969482422 316.499969482422,193.526977539063 316.499969482422,205.124984741211 C316.499969482422,205.124984741211 316.499969482422,205.125 316.499969482422,205.125 " stroke="none" fill="#FFFFFF" fill-rule="evenodd" stroke-width="0" fill-opacity="1" />
  <text x="10.6526889801025" y="33.736442565918" dx="0" dy="0" font-family="Arial" font-size="9.74999970942737pt" fill="#7C7C7C" style="text-anchor:start" transform="matrix(0.750000 0.000000 0.000000 0.750000 274.5 184.125)">END</text>
  <path d="M316.499969482422,205.124984741211 C316.499969482422,216.722961425781 307.097961425781,226.124984741211 295.5,226.125 C283.902008056641,226.125 274.5,216.72297668457 274.499969482422,205.125 L274.5,205.125015258789 C274.499969482422,193.52702331543 283.901977539063,184.125 295.499938964844,184.125 C307.097930908203,184.124969482422 316.499969482422,193.526977539063 316.499969482422,205.124984741211 C316.499969482422,205.124984741211 316.499969482422,205.125 316.499969482422,205.125 " stroke="#707070" fill="none" stroke-width="3" stroke-opacity="1" />
  <path d="M87,22.5 L252,22.5 L252,387.75 L87,387.75  z" stroke="none" fill="#A2D3D2" fill-rule="evenodd" stroke-width="0" fill-opacity="1" />
  <path d="M91.5,26.25 L219,26.25 L219,37.5 L91.5,37.5  z" stroke="none" fill="none" fill-rule="evenodd" stroke-width="0" fill-opacity="0" />
  <text x="-2.27633857727051" y="10" dx="0" dy="0" font-family="Microsoft Sans Serif" font-size="7.49999977648259pt" fill="#333333" style="text-anchor:start" transform="matrix(0.750000 0.000000 0.000000 0.750000 91.5 26.25)">Switch</text>
  <path d="M91.5,41.25 L247.5,41.25 L247.5,59.25 L91.5,59.25  z" stroke="none" fill="#FFFFFF" fill-rule="evenodd" stroke-width="0" fill-opacity="1" />
  <text x="-1.15033853054047" y="11" dx="0" dy="0" font-family="Microsoft Sans Serif" font-size="8.24999975413085pt" fill="#333333" style="text-anchor:start" transform="matrix(0.750000 0.000000 0.000000 0.750000 95.25 44.25)">( </text>
  <text x="-1.3648384809494" y="11" dx="0" dy="0" font-family="Microsoft Sans Serif" font-size="8.24999975413085pt" fill="#333333" style="text-anchor:start" transform="matrix(0.750000 0.000000 0.000000 0.750000 99.75 44.25)">this.INDay</text>
  <text x="-0.523338556289673" y="11" dx="0" dy="0" font-family="Microsoft Sans Serif" font-size="8.24999975413085pt" fill="#333333" style="text-anchor:start" transform="matrix(0.750000 0.000000 0.000000 0.750000 139.5 44.25)"> </text>
  <text x="1.31299471855164" y="11" dx="0" dy="0" font-family="Microsoft Sans Serif" font-size="8.24999975413085pt" fill="#333333" style="text-anchor:start" transform="matrix(0.750000 0.000000 0.000000 0.750000 139.5 44.25)">)</text>
  <path d="M87.375,22.875 L251.625,22.875 L251.625,387.375 L87.375,387.375  z" stroke="#B6B6B6" fill="none" stroke-width="1" stroke-opacity="1" />
  <path d="M91.5,59.25 L247.5,59.25 L247.5,99.75 L91.5,99.75  z" stroke="none" fill="#FFFFFF" fill-rule="evenodd" stroke-width="0" fill-opacity="1" />
  <path d="M91.5,59.25 L247.5,59.25 L247.5,60 L91.5,60  z" stroke="none" fill="#EDF2F2" fill-rule="evenodd" stroke-width="0" fill-opacity="1" />
  <path d="M110.625,77.25 L110.625,100.5 " stroke="#17B1AD" fill="none" stroke-width="2" stroke-opacity="1" />
  <path d="M110.625,79.5 L173.25,79.5 " stroke="#17B1AD" fill="none" stroke-width="2" stroke-opacity="1" />
  <path d="M169.5,76.5 L174.75,79.5 L169.5,82.5  z" stroke="none" fill="#17B1AD" fill-rule="evenodd" stroke-width="0" fill-opacity="1" />
  <path d="M110.625,66 L125.25,79.5 L110.625,93 L96,79.5  z" stroke="none" fill="#8BCACB" fill-rule="evenodd" stroke-width="0" fill-opacity="1" />
  <path d="M110.625,66 L125.25,79.5 L110.625,93 L96,79.5  z" stroke="#17B1AD" fill="none" stroke-width="2" stroke-opacity="1" />
  <path d="M177.75,66.375 L183.75,66.375 " stroke="#68C6C4" fill="none" stroke-width="3" stroke-opacity="0.8980392" />
  <path d="M177.75,65.3999938964844 L177.75,94.5 " stroke="#68C6C4" fill="none" stroke-width="3" stroke-opacity="0.8980392" />
  <path d="M177.75,93.375 L183.75,93.375 " stroke="#68C6C4" fill="none" stroke-width="3" stroke-opacity="0.8980392" />
  <path d="M239.25,66.375 L245.25,66.375 " stroke="#68C6C4" fill="none" stroke-width="3" stroke-opacity="0.8980392" />
  <path d="M245.25,65.3999938964844 L245.25,94.5 " stroke="#68C6C4" fill="none" stroke-width="3" stroke-opacity="0.8980392" />
  <path d="M239.25,93.375 L245.25,93.375 " stroke="#68C6C4" fill="none" stroke-width="3" stroke-opacity="0.8980392" />
  <text x="-2.48133850097656" y="10" dx="0" dy="0" font-family="Microsoft Sans Serif" font-size="7.49999977648259pt" fill="#333333" style="text-anchor:start" transform="matrix(0.750000 0.000000 0.000000 0.750000 102 73.5)">Case</text>
  <text x="-2.34383869171143" y="11" dx="0" dy="0" font-family="Microsoft Sans Serif" font-size="8.24999975413085pt" fill="#333333" style="text-anchor:start" transform="matrix(0.750000 0.000000 0.000000 0.750000 142.5 68.25)">1</text>
  <text x="-3.17633867263794" y="14" dx="0" dy="0" font-family="Microsoft Sans Serif" font-size="10.4999996870756pt" fill="#333333" style="text-anchor:start" transform="matrix(0.750000 0.000000 0.000000 0.750000 208.5 67.5)">3</text>
  <text x="-0.463338613510132" y="8" dx="0" dy="0" font-family="Microsoft Sans Serif" font-size="5.99999982118607pt" fill="#333333" style="text-anchor:start" transform="matrix(0.750000 0.000000 0.000000 0.750000 201.75 83.25)">Item(s)</text>
  <path d="M91.5,99.75 L247.5,99.75 L247.5,140.25 L91.5,140.25  z" stroke="none" fill="#FFFFFF" fill-rule="evenodd" stroke-width="0" fill-opacity="1" />
  <path d="M91.5,99.75 L247.5,99.75 L247.5,100.5 L91.5,100.5  z" stroke="none" fill="#EDF2F2" fill-rule="evenodd" stroke-width="0" fill-opacity="1" />
  <path d="M110.625,99.75 L110.625,120.75 " stroke="#17B1AD" fill="none" stroke-width="2" stroke-opacity="1" />
  <path d="M110.625,117.75 L110.625,141 " stroke="#17B1AD" fill="none" stroke-width="2" stroke-opacity="1" />
  <path d="M110.625,120 L173.25,120 " stroke="#17B1AD" fill="none" stroke-width="2" stroke-opacity="1" />
  <path d="M169.5,117 L174.75,120 L169.5,123  z" stroke="none" fill="#17B1AD" fill-rule="evenodd" stroke-width="0" fill-opacity="1" />
  <path d="M110.625,106.5 L125.25,120 L110.625,133.5 L96,120  z" stroke="none" fill="#8BCACB" fill-rule="evenodd" stroke-width="0" fill-opacity="1" />
  <path d="M110.625,106.5 L125.25,120 L110.625,133.5 L96,120  z" stroke="#17B1AD" fill="none" stroke-width="2" stroke-opacity="1" />
  <path d="M177.75,106.875 L183.75,106.875 " stroke="#68C6C4" fill="none" stroke-width="3" stroke-opacity="0.8980392" />
  <path d="M177.75,105.899993896484 L177.75,135 " stroke="#68C6C4" fill="none" stroke-width="3" stroke-opacity="0.8980392" />
  <path d="M177.75,133.875 L183.75,133.875 " stroke="#68C6C4" fill="none" stroke-width="3" stroke-opacity="0.8980392" />
  <path d="M239.25,106.875 L245.25,106.875 " stroke="#68C6C4" fill="none" stroke-width="3" stroke-opacity="0.8980392" />
  <path d="M245.25,105.899993896484 L245.25,135 " stroke="#68C6C4" fill="none" stroke-width="3" stroke-opacity="0.8980392" />
  <path d="M239.25,133.875 L245.25,133.875 " stroke="#68C6C4" fill="none" stroke-width="3" stroke-opacity="0.8980392" />
  <text x="-2.48133850097656" y="10" dx="0" dy="0" font-family="Microsoft Sans Serif" font-size="7.49999977648259pt" fill="#333333" style="text-anchor:start" transform="matrix(0.750000 0.000000 0.000000 0.750000 102 114)">Case</text>
  <text x="-2.34383869171143" y="11" dx="0" dy="0" font-family="Microsoft Sans Serif" font-size="8.24999975413085pt" fill="#333333" style="text-anchor:start" transform="matrix(0.750000 0.000000 0.000000 0.750000 142.5 108.75)">2</text>
  <text x="-3.17633867263794" y="14" dx="0" dy="0" font-family="Microsoft Sans Serif" font-size="10.4999996870756pt" fill="#333333" style="text-anchor:start" transform="matrix(0.750000 0.000000 0.000000 0.750000 208.5 108)">3</text>
  <text x="-0.463338613510132" y="8" dx="0" dy="0" font-family="Microsoft Sans Serif" font-size="5.99999982118607pt" fill="#333333" style="text-anchor:start" transform="matrix(0.750000 0.000000 0.000000 0.750000 201.75 123.75)">Item(s)</text>
  <path d="M91.5,140.25 L247.5,140.25 L247.5,180.75 L91.5,180.75  z" stroke="none" fill="#FFFFFF" fill-rule="evenodd" stroke-width="0" fill-opacity="1" />
  <path d="M91.5,140.25 L247.5,140.25 L247.5,141 L91.5,141  z" stroke="none" fill="#EDF2F2" fill-rule="evenodd" stroke-width="0" fill-opacity="1" />
  <path d="M110.625,140.25 L110.625,161.25 " stroke="#17B1AD" fill="none" stroke-width="2" stroke-opacity="1" />
  <path d="M110.625,158.25 L110.625,181.5 " stroke="#17B1AD" fill="none" stroke-width="2" stroke-opacity="1" />
  <path d="M110.625,160.5 L173.25,160.5 " stroke="#17B1AD" fill="none" stroke-width="2" stroke-opacity="1" />
  <path d="M169.5,157.5 L174.75,160.5 L169.5,163.5  z" stroke="none" fill="#17B1AD" fill-rule="evenodd" stroke-width="0" fill-opacity="1" />
  <path d="M110.625,147 L125.25,160.5 L110.625,174 L96,160.5  z" stroke="none" fill="#8BCACB" fill-rule="evenodd" stroke-width="0" fill-opacity="1" />
  <path d="M110.625,147 L125.25,160.5 L110.625,174 L96,160.5  z" stroke="#17B1AD" fill="none" stroke-width="2" stroke-opacity="1" />
  <path d="M177.75,147.375 L183.75,147.375 " stroke="#68C6C4" fill="none" stroke-width="3" stroke-opacity="0.8980392" />
  <path d="M177.75,146.399993896484 L177.75,175.5 " stroke="#68C6C4" fill="none" stroke-width="3" stroke-opacity="0.8980392" />
  <path d="M177.75,174.375 L183.75,174.375 " stroke="#68C6C4" fill="none" stroke-width="3" stroke-opacity="0.8980392" />
  <path d="M239.25,147.375 L245.25,147.375 " stroke="#68C6C4" fill="none" stroke-width="3" stroke-opacity="0.8980392" />
  <path d="M245.25,146.399993896484 L245.25,175.5 " stroke="#68C6C4" fill="none" stroke-width="3" stroke-opacity="0.8980392" />
  <path d="M239.25,174.375 L245.25,174.375 " stroke="#68C6C4" fill="none" stroke-width="3" stroke-opacity="0.8980392" />
  <text x="-2.48133850097656" y="10" dx="0" dy="0" font-family="Microsoft Sans Serif" font-size="7.49999977648259pt" fill="#333333" style="text-anchor:start" transform="matrix(0.750000 0.000000 0.000000 0.750000 102 154.5)">Case</text>
  <text x="-2.34383869171143" y="11" dx="0" dy="0" font-family="Microsoft Sans Serif" font-size="8.24999975413085pt" fill="#333333" style="text-anchor:start" transform="matrix(0.750000 0.000000 0.000000 0.750000 142.5 149.25)">3</text>
  <text x="-3.17633867263794" y="14" dx="0" dy="0" font-family="Microsoft Sans Serif" font-size="10.4999996870756pt" fill="#333333" style="text-anchor:start" transform="matrix(0.750000 0.000000 0.000000 0.750000 208.5 148.5)">3</text>
  <text x="-0.463338613510132" y="8" dx="0" dy="0" font-family="Microsoft Sans Serif" font-size="5.99999982118607pt" fill="#333333" style="text-anchor:start" transform="matrix(0.750000 0.000000 0.000000 0.750000 201.75 164.25)">Item(s)</text>
  <path d="M91.5,180.75 L247.5,180.75 L247.5,221.25 L91.5,221.25  z" stroke="none" fill="#FFFFFF" fill-rule="evenodd" stroke-width="0" fill-opacity="1" />
  <path d="M91.5,180.75 L247.5,180.75 L247.5,181.5 L91.5,181.5  z" stroke="none" fill="#EDF2F2" fill-rule="evenodd" stroke-width="0" fill-opacity="1" />
  <path d="M110.625,180.75 L110.625,201.75 " stroke="#17B1AD" fill="none" stroke-width="2" stroke-opacity="1" />
  <path d="M110.625,198.75 L110.625,222 " stroke="#17B1AD" fill="none" stroke-width="2" stroke-opacity="1" />
  <path d="M110.625,201 L173.25,201 " stroke="#17B1AD" fill="none" stroke-width="2" stroke-opacity="1" />
  <path d="M169.5,198 L174.75,201 L169.5,204  z" stroke="none" fill="#17B1AD" fill-rule="evenodd" stroke-width="0" fill-opacity="1" />
  <path d="M110.625,187.5 L125.25,201 L110.625,214.5 L96,201  z" stroke="none" fill="#8BCACB" fill-rule="evenodd" stroke-width="0" fill-opacity="1" />
  <path d="M110.625,187.5 L125.25,201 L110.625,214.5 L96,201  z" stroke="#17B1AD" fill="none" stroke-width="2" stroke-opacity="1" />
  <path d="M177.75,187.875 L183.75,187.875 " stroke="#68C6C4" fill="none" stroke-width="3" stroke-opacity="0.8980392" />
  <path d="M177.75,186.899993896484 L177.75,216 " stroke="#68C6C4" fill="none" stroke-width="3" stroke-opacity="0.8980392" />
  <path d="M177.75,214.875 L183.75,214.875 " stroke="#68C6C4" fill="none" stroke-width="3" stroke-opacity="0.8980392" />
  <path d="M239.25,187.875 L245.25,187.875 " stroke="#68C6C4" fill="none" stroke-width="3" stroke-opacity="0.8980392" />
  <path d="M245.25,186.899993896484 L245.25,216 " stroke="#68C6C4" fill="none" stroke-width="3" stroke-opacity="0.8980392" />
  <path d="M239.25,214.875 L245.25,214.875 " stroke="#68C6C4" fill="none" stroke-width="3" stroke-opacity="0.8980392" />
  <text x="-2.48133850097656" y="10" dx="0" dy="0" font-family="Microsoft Sans Serif" font-size="7.49999977648259pt" fill="#333333" style="text-anchor:start" transform="matrix(0.750000 0.000000 0.000000 0.750000 102 195)">Case</text>
  <text x="-2.34383869171143" y="11" dx="0" dy="0" font-family="Microsoft Sans Serif" font-size="8.24999975413085pt" fill="#333333" style="text-anchor:start" transform="matrix(0.750000 0.000000 0.000000 0.750000 142.5 189.75)">4</text>
  <text x="-3.17633867263794" y="14" dx="0" dy="0" font-family="Microsoft Sans Serif" font-size="10.4999996870756pt" fill="#333333" style="text-anchor:start" transform="matrix(0.750000 0.000000 0.000000 0.750000 208.5 189)">3</text>
  <text x="-0.463338613510132" y="8" dx="0" dy="0" font-family="Microsoft Sans Serif" font-size="5.99999982118607pt" fill="#333333" style="text-anchor:start" transform="matrix(0.750000 0.000000 0.000000 0.750000 201.75 204.75)">Item(s)</text>
  <path d="M91.5,221.25 L247.5,221.25 L247.5,261.75 L91.5,261.75  z" stroke="none" fill="#FFFFFF" fill-rule="evenodd" stroke-width="0" fill-opacity="1" />
  <path d="M91.5,221.25 L247.5,221.25 L247.5,222 L91.5,222  z" stroke="none" fill="#EDF2F2" fill-rule="evenodd" stroke-width="0" fill-opacity="1" />
  <path d="M110.625,221.25 L110.625,242.25 " stroke="#17B1AD" fill="none" stroke-width="2" stroke-opacity="1" />
  <path d="M110.625,239.25 L110.625,262.5 " stroke="#17B1AD" fill="none" stroke-width="2" stroke-opacity="1" />
  <path d="M110.625,241.5 L173.25,241.5 " stroke="#17B1AD" fill="none" stroke-width="2" stroke-opacity="1" />
  <path d="M169.5,238.5 L174.75,241.5 L169.5,244.5  z" stroke="none" fill="#17B1AD" fill-rule="evenodd" stroke-width="0" fill-opacity="1" />
  <path d="M110.625,228 L125.25,241.5 L110.625,255 L96,241.5  z" stroke="none" fill="#8BCACB" fill-rule="evenodd" stroke-width="0" fill-opacity="1" />
  <path d="M110.625,228 L125.25,241.5 L110.625,255 L96,241.5  z" stroke="#17B1AD" fill="none" stroke-width="2" stroke-opacity="1" />
  <path d="M177.75,228.375 L183.75,228.375 " stroke="#68C6C4" fill="none" stroke-width="3" stroke-opacity="0.8980392" />
  <path d="M177.75,227.399993896484 L177.75,256.5 " stroke="#68C6C4" fill="none" stroke-width="3" stroke-opacity="0.8980392" />
  <path d="M177.75,255.375 L183.75,255.375 " stroke="#68C6C4" fill="none" stroke-width="3" stroke-opacity="0.8980392" />
  <path d="M239.25,228.375 L245.25,228.375 " stroke="#68C6C4" fill="none" stroke-width="3" stroke-opacity="0.8980392" />
  <path d="M245.25,227.399993896484 L245.25,256.5 " stroke="#68C6C4" fill="none" stroke-width="3" stroke-opacity="0.8980392" />
  <path d="M239.25,255.375 L245.25,255.375 " stroke="#68C6C4" fill="none" stroke-width="3" stroke-opacity="0.8980392" />
  <text x="-2.48133850097656" y="10" dx="0" dy="0" font-family="Microsoft Sans Serif" font-size="7.49999977648259pt" fill="#333333" style="text-anchor:start" transform="matrix(0.750000 0.000000 0.000000 0.750000 102 235.5)">Case</text>
  <text x="-2.34383869171143" y="11" dx="0" dy="0" font-family="Microsoft Sans Serif" font-size="8.24999975413085pt" fill="#333333" style="text-anchor:start" transform="matrix(0.750000 0.000000 0.000000 0.750000 142.5 230.25)">5</text>
  <text x="-3.17633867263794" y="14" dx="0" dy="0" font-family="Microsoft Sans Serif" font-size="10.4999996870756pt" fill="#333333" style="text-anchor:start" transform="matrix(0.750000 0.000000 0.000000 0.750000 208.5 229.5)">3</text>
  <text x="-0.463338613510132" y="8" dx="0" dy="0" font-family="Microsoft Sans Serif" font-size="5.99999982118607pt" fill="#333333" style="text-anchor:start" transform="matrix(0.750000 0.000000 0.000000 0.750000 201.75 245.25)">Item(s)</text>
  <path d="M91.5,261.75 L247.5,261.75 L247.5,302.25 L91.5,302.25  z" stroke="none" fill="#FFFFFF" fill-rule="evenodd" stroke-width="0" fill-opacity="1" />
  <path d="M91.5,261.75 L247.5,261.75 L247.5,262.5 L91.5,262.5  z" stroke="none" fill="#EDF2F2" fill-rule="evenodd" stroke-width="0" fill-opacity="1" />
  <path d="M110.625,261.75 L110.625,282.75 " stroke="#17B1AD" fill="none" stroke-width="2" stroke-opacity="1" />
  <path d="M110.625,279.75 L110.625,303 " stroke="#17B1AD" fill="none" stroke-width="2" stroke-opacity="1" />
  <path d="M110.625,282 L173.25,282 " stroke="#17B1AD" fill="none" stroke-width="2" stroke-opacity="1" />
  <path d="M169.5,279 L174.75,282 L169.5,285  z" stroke="none" fill="#17B1AD" fill-rule="evenodd" stroke-width="0" fill-opacity="1" />
  <path d="M110.625,268.5 L125.25,282 L110.625,295.5 L96,282  z" stroke="none" fill="#8BCACB" fill-rule="evenodd" stroke-width="0" fill-opacity="1" />
  <path d="M110.625,268.5 L125.25,282 L110.625,295.5 L96,282  z" stroke="#17B1AD" fill="none" stroke-width="2" stroke-opacity="1" />
  <path d="M177.75,268.875 L183.75,268.875 " stroke="#68C6C4" fill="none" stroke-width="3" stroke-opacity="0.8980392" />
  <path d="M177.75,267.899993896484 L177.75,297 " stroke="#68C6C4" fill="none" stroke-width="3" stroke-opacity="0.8980392" />
  <path d="M177.75,295.875 L183.75,295.875 " stroke="#68C6C4" fill="none" stroke-width="3" stroke-opacity="0.8980392" />
  <path d="M239.25,268.875 L245.25,268.875 " stroke="#68C6C4" fill="none" stroke-width="3" stroke-opacity="0.8980392" />
  <path d="M245.25,267.899993896484 L245.25,297 " stroke="#68C6C4" fill="none" stroke-width="3" stroke-opacity="0.8980392" />
  <path d="M239.25,295.875 L245.25,295.875 " stroke="#68C6C4" fill="none" stroke-width="3" stroke-opacity="0.8980392" />
  <text x="-2.48133850097656" y="10" dx="0" dy="0" font-family="Microsoft Sans Serif" font-size="7.49999977648259pt" fill="#333333" style="text-anchor:start" transform="matrix(0.750000 0.000000 0.000000 0.750000 102 276)">Case</text>
  <text x="-2.34383869171143" y="11" dx="0" dy="0" font-family="Microsoft Sans Serif" font-size="8.24999975413085pt" fill="#333333" style="text-anchor:start" transform="matrix(0.750000 0.000000 0.000000 0.750000 142.5 270.75)">6</text>
  <text x="-3.17633867263794" y="14" dx="0" dy="0" font-family="Microsoft Sans Serif" font-size="10.4999996870756pt" fill="#333333" style="text-anchor:start" transform="matrix(0.750000 0.000000 0.000000 0.750000 208.5 270)">3</text>
  <text x="-0.463338613510132" y="8" dx="0" dy="0" font-family="Microsoft Sans Serif" font-size="5.99999982118607pt" fill="#333333" style="text-anchor:start" transform="matrix(0.750000 0.000000 0.000000 0.750000 201.75 285.75)">Item(s)</text>
  <path d="M91.5,302.25 L247.5,302.25 L247.5,342.75 L91.5,342.75  z" stroke="none" fill="#FFFFFF" fill-rule="evenodd" stroke-width="0" fill-opacity="1" />
  <path d="M91.5,302.25 L247.5,302.25 L247.5,303 L91.5,303  z" stroke="none" fill="#EDF2F2" fill-rule="evenodd" stroke-width="0" fill-opacity="1" />
  <path d="M110.625,302.25 L110.625,323.25 " stroke="#17B1AD" fill="none" stroke-width="2" stroke-opacity="1" />
  <path d="M110.625,320.25 L110.625,343.5 " stroke="#17B1AD" fill="none" stroke-width="2" stroke-opacity="1" />
  <path d="M110.625,322.5 L173.25,322.5 " stroke="#17B1AD" fill="none" stroke-width="2" stroke-opacity="1" />
  <path d="M169.5,319.5 L174.75,322.5 L169.5,325.5  z" stroke="none" fill="#17B1AD" fill-rule="evenodd" stroke-width="0" fill-opacity="1" />
  <path d="M110.625,309 L125.25,322.5 L110.625,336 L96,322.5  z" stroke="none" fill="#8BCACB" fill-rule="evenodd" stroke-width="0" fill-opacity="1" />
  <path d="M110.625,309 L125.25,322.5 L110.625,336 L96,322.5  z" stroke="#17B1AD" fill="none" stroke-width="2" stroke-opacity="1" />
  <path d="M177.75,309.375 L183.75,309.375 " stroke="#68C6C4" fill="none" stroke-width="3" stroke-opacity="0.8980392" />
  <path d="M177.75,308.399993896484 L177.75,337.5 " stroke="#68C6C4" fill="none" stroke-width="3" stroke-opacity="0.8980392" />
  <path d="M177.75,336.375 L183.75,336.375 " stroke="#68C6C4" fill="none" stroke-width="3" stroke-opacity="0.8980392" />
  <path d="M239.25,309.375 L245.25,309.375 " stroke="#68C6C4" fill="none" stroke-width="3" stroke-opacity="0.8980392" />
  <path d="M245.25,308.399993896484 L245.25,337.5 " stroke="#68C6C4" fill="none" stroke-width="3" stroke-opacity="0.8980392" />
  <path d="M239.25,336.375 L245.25,336.375 " stroke="#68C6C4" fill="none" stroke-width="3" stroke-opacity="0.8980392" />
  <text x="-2.48133850097656" y="10" dx="0" dy="0" font-family="Microsoft Sans Serif" font-size="7.49999977648259pt" fill="#333333" style="text-anchor:start" transform="matrix(0.750000 0.000000 0.000000 0.750000 102 316.5)">Case</text>
  <text x="-2.34383869171143" y="11" dx="0" dy="0" font-family="Microsoft Sans Serif" font-size="8.24999975413085pt" fill="#333333" style="text-anchor:start" transform="matrix(0.750000 0.000000 0.000000 0.750000 142.5 311.25)">0</text>
  <text x="-3.17633867263794" y="14" dx="0" dy="0" font-family="Microsoft Sans Serif" font-size="10.4999996870756pt" fill="#333333" style="text-anchor:start" transform="matrix(0.750000 0.000000 0.000000 0.750000 208.5 310.5)">3</text>
  <text x="-0.463338613510132" y="8" dx="0" dy="0" font-family="Microsoft Sans Serif" font-size="5.99999982118607pt" fill="#333333" style="text-anchor:start" transform="matrix(0.750000 0.000000 0.000000 0.750000 201.75 326.25)">Item(s)</text>
  <path d="M91.5,342.75 L247.5,342.75 L247.5,383.25 L91.5,383.25  z" stroke="none" fill="#FFFFFF" fill-rule="evenodd" stroke-width="0" fill-opacity="1" />
  <path d="M91.5,342.75 L247.5,342.75 L247.5,343.5 L91.5,343.5  z" stroke="none" fill="#EDF2F2" fill-rule="evenodd" stroke-width="0" fill-opacity="1" />
  <path d="M110.625,342.75 L110.625,363.75 " stroke="#17B1AD" fill="none" stroke-width="2" stroke-opacity="1" />
  <path d="M110.625,363 L173.25,363 " stroke="#17B1AD" fill="none" stroke-width="2" stroke-opacity="1" />
  <path d="M169.5,360 L174.75,363 L169.5,366  z" stroke="none" fill="#17B1AD" fill-rule="evenodd" stroke-width="0" fill-opacity="1" />
  <path d="M177.75,349.875 L183.75,349.875 " stroke="#68C6C4" fill="none" stroke-width="3" stroke-opacity="0.8980392" />
  <path d="M177.75,348.899993896484 L177.75,378 " stroke="#68C6C4" fill="none" stroke-width="3" stroke-opacity="0.8980392" />
  <path d="M177.75,376.875 L183.75,376.875 " stroke="#68C6C4" fill="none" stroke-width="3" stroke-opacity="0.8980392" />
  <path d="M239.25,349.875 L245.25,349.875 " stroke="#68C6C4" fill="none" stroke-width="3" stroke-opacity="0.8980392" />
  <path d="M245.25,348.899993896484 L245.25,378 " stroke="#68C6C4" fill="none" stroke-width="3" stroke-opacity="0.8980392" />
  <path d="M239.25,376.875 L245.25,376.875 " stroke="#68C6C4" fill="none" stroke-width="3" stroke-opacity="0.8980392" />
  <text x="-2.72633838653564" y="10" dx="0" dy="0" font-family="Microsoft Sans Serif" font-size="7.49999977648259pt" fill="#333333" style="text-anchor:start" transform="matrix(0.750000 0.000000 0.000000 0.750000 103.5 366.75)">Default</text>
  <text x="-2.23133850097656" y="10" dx="0" dy="0" font-family="Microsoft Sans Serif" font-size="7.49999977648259pt" fill="#333333" style="text-anchor:start" transform="matrix(0.750000 0.000000 0.000000 0.750000 200.25 357.75)">Empty</text>
  <path d="M64.5,205.125 L82.0124969482422,205.125 " stroke="#888888" fill="none" stroke-width="3" stroke-opacity="1" />
  <path d="M87,205.124984741211 L82.0124969482422,207.067489624023 L82.0124969482422,203.182495117188 L87,205.124984741211 " stroke="none" fill="#888888" fill-rule="evenodd" stroke-width="0" fill-opacity="1" />
  <path d="M87,205.124984741211 L82.0124969482422,207.067489624023 L82.0124969482422,203.182495117188 L87,205.124984741211 " stroke="#888888" fill="none" stroke-width="3" stroke-opacity="1" />
  <path d="M252,205.125 L269.512481689453,205.125 " stroke="#888888" fill="none" stroke-width="3" stroke-opacity="1" />
  <path d="M274.5,205.124984741211 L269.512481689453,207.067489624023 L269.512481689453,203.182495117188 L274.5,205.124984741211 " stroke="none" fill="#888888" fill-rule="evenodd" stroke-width="0" fill-opacity="1" />
  <path d="M274.5,205.124984741211 L269.512481689453,207.067489624023 L269.512481689453,203.182495117188 L274.5,205.124984741211 " stroke="#888888" fill="none" stroke-width="3" stroke-opacity="1" />
</svg>